<svg id="Layer_1" data-name="Layer 1" xmlns="http://www.w3.org/2000/svg" width="218.37" height="91.21" viewBox="0 0 218.37 91.21">
  <defs>
    <style>
      .cls-1 {
        fill: #fff;
      }
    </style>
  </defs>
  <title>git</title>
  <path class="cls-1" d="M147.06,31.31a13.8,13.8,0,0,1,3.22,8.79c0,9.66-7.57,15.32-18.54,15.32a27.68,27.68,0,0,1-6.88-.78L122,59.25l8.53.52c15.06,1,23.93,1.4,23.93,13,0,10-8.79,15.67-23.93,15.67-15.75,0-21.76-4-21.76-10.88,0-3.92,1.74-6,4.79-8.88a5.8,5.8,0,0,1-3.83-5.74,7.8,7.8,0,0,1,2.53-5.31c1.57-1.65,3.31-3.31,5.39-5.22-4.26-2.09-7.48-6.61-7.48-13.06,0-10,6.61-16.88,19.93-16.88a29.86,29.86,0,0,1,8,.87h17v7.4ZM121.3,71c-1.13,1.39-2.26,2.87-2.26,4.61,0,3.48,4.44,4.53,10.53,4.53,5,0,11.92-.35,11.92-5,0-2.79-3.31-3-7.49-3.22Zm9.57-40c-4.79,0-8.35,2.35-8.35,8,0,4.26,2.35,7.22,8.1,7.22,4.87,0,8.18-2.87,8.18-7.4C138.79,33.75,135.83,31,130.87,31Z"/>
  <path class="cls-1" d="M159.15,67.79V60.92l4.44-.61c1.22-.18,1.39-.44,1.39-1.74V33c0-1-.26-1.57-1.13-1.83l-4.7-1.66,1-7h18V58.57c0,1.39.08,1.57,1.39,1.74l4.44.61v6.87Zm11.23-52.3c-5,0-7.83-2.87-7.83-7.84S165.42,0,170.38,0s7.92,2.7,7.92,7.66S175.43,15.49,170.38,15.49Z"/>
  <path class="cls-1" d="M218.37,64.42a34.81,34.81,0,0,1-14.19,3.48c-10.36,0-14.27-4.17-14.27-14V31.09c0-.52,0-.87-.7-.87h-6.09V22.47c7.66-.87,10.71-4.7,11.66-14.19h8.27V20.64c0,.61,0,.87.7.87H216v8.7h-13V51c0,5.14,1.22,7.14,5.92,7.14a20.72,20.72,0,0,0,7-1.39Z"/>
  <path class="cls-1" d="M89.42,41.58,49.63,1.79a5.87,5.87,0,0,0-8.3,0l-8.26,8.26L43.55,20.54a7,7,0,0,1,8.83,8.89l10.1,10.1a7,7,0,1,1-4.18,3.94L48.87,34V58.83a7,7,0,1,1-5.74-.2v-25a6.91,6.91,0,0,1-2.29-1.52,7,7,0,0,1-1.5-7.64L29,14.11,1.72,41.4a5.87,5.87,0,0,0,0,8.3L41.51,89.49a5.87,5.87,0,0,0,8.3,0L89.42,49.88A5.87,5.87,0,0,0,89.42,41.58Z"/>
</svg>
